<svg fill="none" viewBox="0 0 24 24"><path fill="url(#a)" fill-rule="evenodd" d="M10 11C9.44772 11 9 11.4477 9 12C9 12.5523 9.44772 13 10 13L20 13C20.5523 13 21 12.5523 21 12C21 11.4477 20.5523 11 20 11H10ZM4 17C3.44772 17 3 17.4477 3 18C3 18.5523 3.44772 19 4 19H20C20.5523 19 21 18.5523 21 18C21 17.4477 20.5523 17 20 17H4Z" clip-rule="evenodd"/><path fill="#850026" fill-rule="evenodd" d="M3 6C3 5.44772 3.44772 5 4 5L20 5C20.5523 5 21 5.44772 21 6C21 6.55228 20.5523 7 20 7L4 7C3.44772 7 3 6.55228 3 6Z" clip-rule="evenodd"/><defs><linearGradient id="a" x1="2.182" x2="8.66" y1="10.636" y2="25.212" gradientUnits="userSpaceOnUse"><stop offset=".083" stop-color="#FF6A6A"/><stop offset="1" stop-color="#F72257"/></linearGradient></defs></svg>